<svg width="130" height="40" viewBox="0 0 130 40" fill="none" xmlns="http://www.w3.org/2000/svg">
<path d="M11.5479 6.25H7.79785V33.75H12.7979V7.5C12.7979 6.80964 12.2382 6.25 11.5479 6.25Z" fill="#EDBC00"/>
<path d="M21.5479 6.25H17.7979V33.75H22.7979V7.5C22.7979 6.80964 22.2382 6.25 21.5479 6.25Z" fill="#ED9400"/>
<path d="M31.5479 6.25H27.7979V33.75H32.7979V7.5C32.7979 6.80964 32.2382 6.25 31.5479 6.25Z" fill="#990045"/>
<path d="M38.4229 38.125H2.17285V1.875H38.4229V38.125Z" stroke="#001555" stroke-width="3.75"/>
<path d="M50.2979 15.9478V1.11475H53.6876V7.189H53.7559L58.1466 1.11475H61.8549L53.6876 11.8983V15.9478H50.2979ZM58.5561 15.9478L55.0981 9.0545L57.0774 6.43825L62.2644 15.9478H58.5561Z" fill="#3D5061"/>
<path d="M69.8995 16.2208C68.7316 16.2208 67.67 15.9933 66.7145 15.5382C65.7741 15.0681 65.0234 14.3932 64.4622 13.5135C63.9162 12.6187 63.6432 11.5494 63.6432 10.3058C63.6432 9.07725 63.9238 8.02317 64.485 7.1435C65.0461 6.24867 65.7741 5.56617 66.669 5.096C67.5638 4.62583 68.5117 4.39075 69.5127 4.39075C70.6805 4.39075 71.6588 4.63342 72.4475 5.11875C73.2361 5.58892 73.8276 6.2335 74.222 7.0525C74.6315 7.85633 74.8362 8.77392 74.8362 9.80525C74.8362 10.1086 74.8135 10.4043 74.768 10.6925C74.7376 10.9655 74.7073 11.1702 74.677 11.3068H66.123V9.0545H72.4247L71.9015 9.6915C71.9015 8.7815 71.7043 8.099 71.31 7.644C70.9308 7.17383 70.3696 6.93875 69.6265 6.93875C69.0805 6.93875 68.6027 7.06008 68.1932 7.30275C67.7837 7.54542 67.4652 7.917 67.2377 8.4175C67.0102 8.918 66.8965 9.54742 66.8965 10.3058C66.8965 11.0793 67.033 11.7163 67.306 12.2168C67.579 12.7021 67.9733 13.0661 68.489 13.3088C69.0046 13.5514 69.6265 13.6728 70.3545 13.6728C70.8701 13.6728 71.3555 13.6045 71.8105 13.468C72.2806 13.3315 72.766 13.1343 73.2665 12.8765L74.3812 14.9012C73.729 15.3108 73.0086 15.6368 72.22 15.8795C71.4313 16.107 70.6578 16.2208 69.8995 16.2208Z" fill="#3D5061"/>
<path d="M77.6711 15.9478V4.66375H80.4011L80.6513 6.16525H80.7423C81.2277 5.67992 81.7812 5.26283 82.4031 4.914C83.0401 4.56517 83.7832 4.39075 84.6326 4.39075C85.9066 4.39075 86.8393 4.80025 87.4308 5.61925C88.0223 6.43825 88.3181 7.56058 88.3181 8.98625V15.9478H84.9738V9.4185C84.9738 8.66017 84.8449 8.10658 84.5871 7.75775C84.3444 7.40892 83.9197 7.2345 83.3131 7.2345C82.8581 7.2345 82.4562 7.34067 82.1073 7.553C81.7737 7.75017 81.4097 8.03833 81.0153 8.4175V15.9478H77.6711Z" fill="#3D5061"/>
<path d="M95.4982 16.2208C94.0725 16.2208 92.9199 15.6975 92.0402 14.651C91.1757 13.5893 90.7434 12.1409 90.7434 10.3058C90.7434 9.07725 90.9709 8.02317 91.4259 7.1435C91.8961 6.26383 92.5028 5.58892 93.2459 5.11875C93.9891 4.63342 94.7626 4.39075 95.5664 4.39075C96.1883 4.39075 96.7267 4.49692 97.1817 4.70925C97.6367 4.92158 98.0462 5.21733 98.4102 5.5965H98.5012L98.3419 3.84475V0H101.686V15.9478H98.9562L98.7059 14.7875H98.6377C98.2282 15.197 97.7429 15.5383 97.1817 15.8113C96.6357 16.0843 96.0745 16.2208 95.4982 16.2208ZM96.3627 13.4908C96.7419 13.4908 97.0907 13.4149 97.4092 13.2633C97.7429 13.0964 98.0538 12.8234 98.3419 12.4443V7.8715C98.0386 7.5985 97.7277 7.40892 97.4092 7.30275C97.1059 7.18142 96.7874 7.12075 96.4537 7.12075C96.0442 7.12075 95.665 7.2345 95.3162 7.462C94.9674 7.6895 94.6868 8.03833 94.4744 8.5085C94.2773 8.9635 94.1787 9.54742 94.1787 10.2603C94.1787 11.3674 94.3683 12.1864 94.7474 12.7173C95.1266 13.2329 95.665 13.4908 96.3627 13.4908Z" fill="#3D5061"/>
<path d="M105.954 15.9478V4.66375H108.684L108.957 7.12075H109.026C109.587 6.19558 110.262 5.51308 111.05 5.07325C111.854 4.61825 112.703 4.39075 113.598 4.39075C114.099 4.39075 114.501 4.42867 114.804 4.5045C115.123 4.58033 115.449 4.69408 115.782 4.84575L115.1 7.644C114.751 7.53783 114.432 7.462 114.144 7.4165C113.871 7.35583 113.522 7.3255 113.098 7.3255C112.4 7.3255 111.71 7.53025 111.028 7.93975C110.36 8.34925 109.784 9.06208 109.299 10.0782V15.9478H105.954Z" fill="#3D5061"/>
<path d="M122.052 16.2208C121.294 16.2208 120.634 16.0691 120.073 15.7658C119.527 15.4624 119.103 15.0529 118.799 14.5373C118.496 14.0216 118.344 13.4453 118.344 12.8083C118.344 11.5494 118.913 10.5863 120.05 9.919C121.203 9.25167 123.114 8.84217 125.783 8.6905C125.738 8.34167 125.624 8.04592 125.442 7.80325C125.26 7.56058 124.995 7.37858 124.646 7.25725C124.312 7.12075 123.888 7.0525 123.372 7.0525C123.008 7.0525 122.644 7.098 122.28 7.189C121.916 7.26483 121.537 7.38617 121.142 7.553C120.763 7.70467 120.361 7.88667 119.937 8.099L118.754 5.915C119.269 5.61167 119.808 5.34625 120.369 5.11875C120.945 4.89125 121.537 4.71683 122.143 4.5955C122.765 4.459 123.395 4.39075 124.032 4.39075C125.093 4.39075 126.003 4.58033 126.762 4.9595C127.52 5.3235 128.104 5.88467 128.513 6.643C128.923 7.38617 129.128 8.33408 129.128 9.48675V15.9478H126.398L126.147 14.6738H126.056C125.495 15.0984 124.873 15.4624 124.191 15.7658C123.508 16.0691 122.796 16.2208 122.052 16.2208ZM123.122 13.6273C123.622 13.6273 124.092 13.5287 124.532 13.3315C124.972 13.1192 125.389 12.8613 125.783 12.558V10.6925C124.676 10.7532 123.812 10.8669 123.19 11.0338C122.583 11.2006 122.159 11.4129 121.916 11.6708C121.673 11.9286 121.552 12.2243 121.552 12.558C121.552 12.7855 121.613 12.9827 121.734 13.1495C121.87 13.3163 122.052 13.4377 122.28 13.5135C122.523 13.5893 122.803 13.6273 123.122 13.6273Z" fill="#3D5061"/>
<path d="M50.2979 38.6685V23.8355H53.6421V35.8475H60.2396V38.6685H50.2979Z" fill="#3D5061"/>
<path d="M66.6007 38.9415C65.8424 38.9415 65.1826 38.7898 64.6215 38.4865C64.0755 38.1832 63.6508 37.7737 63.3475 37.258C63.0441 36.7423 62.8925 36.166 62.8925 35.529C62.8925 34.2702 63.4612 33.3071 64.5987 32.6398C65.7514 31.9724 67.6624 31.5629 70.3317 31.4113C70.2862 31.0624 70.1725 30.7667 69.9905 30.524C69.8085 30.2813 69.543 30.0993 69.1942 29.978C68.8605 29.8415 68.4359 29.7733 67.9202 29.7733C67.5562 29.7733 67.1922 29.8188 66.8282 29.9098C66.4642 29.9856 66.085 30.1069 65.6907 30.2738C65.3115 30.4254 64.9096 30.6074 64.485 30.8198L63.302 28.6358C63.8176 28.3324 64.356 28.067 64.9172 27.8395C65.4935 27.612 66.085 27.4376 66.6917 27.3163C67.3135 27.1798 67.943 27.1115 68.58 27.1115C69.6416 27.1115 70.5516 27.3011 71.31 27.6803C72.0683 28.0443 72.6522 28.6054 73.0617 29.3638C73.4712 30.1069 73.676 31.0548 73.676 32.2075V38.6685H70.946L70.6957 37.3945H70.6047C70.0435 37.8192 69.4217 38.1832 68.7392 38.4865C68.0567 38.7898 67.3439 38.9415 66.6007 38.9415ZM67.67 36.348C68.1705 36.348 68.6406 36.2494 69.0805 36.0523C69.5203 35.8399 69.9374 35.5821 70.3317 35.2788V33.4133C69.2245 33.4739 68.36 33.5877 67.7382 33.7545C67.1315 33.9213 66.7069 34.1337 66.4642 34.3915C66.2215 34.6493 66.1002 34.9451 66.1002 35.2788C66.1002 35.5063 66.1609 35.7034 66.2822 35.8703C66.4187 36.0371 66.6007 36.1584 66.8282 36.2343C67.0709 36.3101 67.3515 36.348 67.67 36.348Z" fill="#3D5061"/>
<path d="M82.8353 38.9415C82.3197 38.9415 81.7888 38.8126 81.2428 38.5548C80.712 38.2969 80.2191 37.9253 79.7641 37.44H79.6731L79.4001 38.6685H76.7838V22.7208H80.1281V26.6338L80.0143 28.4083H80.0826C80.5224 27.9988 81.0077 27.6803 81.5386 27.4528C82.0846 27.2253 82.6306 27.1115 83.1766 27.1115C84.1321 27.1115 84.9435 27.3466 85.6108 27.8168C86.2933 28.2869 86.8166 28.9543 87.1806 29.8188C87.5446 30.6681 87.7266 31.6691 87.7266 32.8218C87.7266 34.1109 87.4915 35.2181 87.0213 36.1433C86.5663 37.0533 85.9672 37.7509 85.2241 38.2363C84.4809 38.7064 83.6847 38.9415 82.8353 38.9415ZM82.0846 36.2115C82.4941 36.2115 82.8657 36.0978 83.1993 35.8703C83.533 35.6428 83.7984 35.2863 83.9956 34.801C84.1927 34.3005 84.2913 33.6635 84.2913 32.89C84.2913 32.2075 84.2155 31.6463 84.0638 31.2065C83.9122 30.7515 83.6847 30.4103 83.3813 30.1828C83.0932 29.9553 82.7064 29.8415 82.2211 29.8415C81.8571 29.8415 81.5007 29.9249 81.1518 30.0918C80.8182 30.2434 80.4769 30.5088 80.1281 30.888V35.4608C80.4466 35.7186 80.7727 35.9082 81.1063 36.0295C81.4552 36.1508 81.7812 36.2115 82.0846 36.2115Z" fill="#3D5061"/>
<path d="M95.5209 38.9415C94.5199 38.9415 93.5265 38.7747 92.5407 38.441C91.5549 38.0922 90.7055 37.6827 89.9927 37.2125L91.4259 35.1195C92.1084 35.5593 92.8289 35.893 93.5872 36.1205C94.3607 36.348 95.1569 36.4618 95.9759 36.4618C96.5978 36.4618 97.0528 36.3708 97.3409 36.1888C97.6291 35.9916 97.7732 35.7641 97.7732 35.5063C97.7732 35.3394 97.7277 35.2029 97.6367 35.0968C97.5609 34.9754 97.4168 34.8693 97.2044 34.7783C97.0073 34.6721 96.7267 34.5735 96.3627 34.4825C96.0139 34.3915 95.5589 34.2853 94.9977 34.164C93.4659 33.8303 92.3663 33.3753 91.6989 32.799C91.0316 32.2227 90.6979 31.5023 90.6979 30.6378C90.6979 29.5761 91.1605 28.7268 92.0857 28.0898C93.0109 27.4376 94.2773 27.1115 95.8849 27.1115C96.9011 27.1115 97.8187 27.2783 98.6377 27.612C99.4719 27.9305 100.185 28.2793 100.776 28.6585L99.2747 30.6605C98.7135 30.3117 98.1144 30.0463 97.4774 29.8643C96.8404 29.6823 96.211 29.5913 95.5892 29.5913C95.2404 29.5913 94.9522 29.6292 94.7247 29.705C94.4972 29.7657 94.3228 29.8718 94.2014 30.0235C94.0801 30.16 94.0194 30.3117 94.0194 30.4785C94.0194 30.7818 94.2166 31.0093 94.6109 31.161C95.0053 31.2975 95.6802 31.4719 96.6357 31.6843C97.7884 31.9421 98.6908 32.2378 99.3429 32.5715C99.9951 32.9052 100.443 33.2919 100.685 33.7318C100.943 34.1564 101.072 34.6797 101.072 35.3015C101.072 35.984 100.86 36.5983 100.435 37.1443C100.025 37.6903 99.4036 38.1301 98.5694 38.4638C97.7504 38.7823 96.7343 38.9415 95.5209 38.9415Z" fill="#3D5061"/>
</svg>
